<svg xmlns="http://www.w3.org/2000/svg" width="33" height="33" viewBox="0 0 33 33" fill="none">
  <circle cx="16.5" cy="16.5" r="16.5" fill="#F2EEFF"/>
  <path d="M11 13.5C12.5 11.5 14.3 10.5 16.5 10.5C20.1 10.5 23 13.4 23 17H25.5L22 20.5L18.5 17H21C21 14.5 19 12.5 16.5 12.5C15.2 12.5 14 13 13.1 13.9L11 13.5Z" fill="#7F56D9"/>
  <path d="M22 19.5C20.5 21.5 18.7 22.5 16.5 22.5C12.9 22.5 10 19.6 10 16H7.5L11 12.5L14.5 16H12C12 18.5 14 20.5 16.5 20.5C17.8 20.5 19 20 19.9 19.1L22 19.5Z" fill="#9E77ED"/>
</svg>
